<mxfile host="app.diagrams.net" agent="Mozilla/5.0 (Windows NT 10.0; Win64; x64) AppleWebKit/537.36 (KHTML, like Gecko) Chrome/133.0.0.0 Safari/537.36" version="26.0.16" pages="2">
  <diagram id="C5RBs43oDa-KdzZeNtuy" name="Page-1">
    <mxGraphModel dx="822" dy="737" grid="1" gridSize="10" guides="1" tooltips="1" connect="1" arrows="1" fold="1" page="1" pageScale="1" pageWidth="827" pageHeight="1169" math="0" shadow="0">
      <root>
        <mxCell id="WIyWlLk6GJQsqaUBKTNV-0" />
        <mxCell id="WIyWlLk6GJQsqaUBKTNV-1" parent="WIyWlLk6GJQsqaUBKTNV-0" />
        <mxCell id="WIyWlLk6GJQsqaUBKTNV-2" value="" style="rounded=0;html=1;jettySize=auto;orthogonalLoop=1;fontSize=11;endArrow=block;endFill=0;endSize=8;strokeWidth=1;shadow=0;labelBackgroundColor=none;edgeStyle=orthogonalEdgeStyle;" parent="WIyWlLk6GJQsqaUBKTNV-1" source="WIyWlLk6GJQsqaUBKTNV-3" target="WIyWlLk6GJQsqaUBKTNV-6" edge="1">
          <mxGeometry relative="1" as="geometry" />
        </mxCell>
        <mxCell id="WIyWlLk6GJQsqaUBKTNV-3" value="Lamp doesn&#39;t work" style="rounded=1;whiteSpace=wrap;html=1;fontSize=12;glass=0;strokeWidth=1;shadow=0;" parent="WIyWlLk6GJQsqaUBKTNV-1" vertex="1">
          <mxGeometry x="160" y="80" width="120" height="40" as="geometry" />
        </mxCell>
        <mxCell id="WIyWlLk6GJQsqaUBKTNV-4" value="Yes" style="rounded=0;html=1;jettySize=auto;orthogonalLoop=1;fontSize=11;endArrow=block;endFill=0;endSize=8;strokeWidth=1;shadow=0;labelBackgroundColor=none;edgeStyle=orthogonalEdgeStyle;" parent="WIyWlLk6GJQsqaUBKTNV-1" source="WIyWlLk6GJQsqaUBKTNV-6" target="WIyWlLk6GJQsqaUBKTNV-10" edge="1">
          <mxGeometry y="20" relative="1" as="geometry">
            <mxPoint as="offset" />
          </mxGeometry>
        </mxCell>
        <mxCell id="WIyWlLk6GJQsqaUBKTNV-5" value="No" style="edgeStyle=orthogonalEdgeStyle;rounded=0;html=1;jettySize=auto;orthogonalLoop=1;fontSize=11;endArrow=block;endFill=0;endSize=8;strokeWidth=1;shadow=0;labelBackgroundColor=none;" parent="WIyWlLk6GJQsqaUBKTNV-1" source="WIyWlLk6GJQsqaUBKTNV-6" target="WIyWlLk6GJQsqaUBKTNV-7" edge="1">
          <mxGeometry y="10" relative="1" as="geometry">
            <mxPoint as="offset" />
          </mxGeometry>
        </mxCell>
        <mxCell id="WIyWlLk6GJQsqaUBKTNV-6" value="Lamp&lt;br&gt;plugged in?" style="rhombus;whiteSpace=wrap;html=1;shadow=0;fontFamily=Helvetica;fontSize=12;align=center;strokeWidth=1;spacing=6;spacingTop=-4;" parent="WIyWlLk6GJQsqaUBKTNV-1" vertex="1">
          <mxGeometry x="170" y="170" width="100" height="80" as="geometry" />
        </mxCell>
        <mxCell id="WIyWlLk6GJQsqaUBKTNV-7" value="Plug in lamp" style="rounded=1;whiteSpace=wrap;html=1;fontSize=12;glass=0;strokeWidth=1;shadow=0;" parent="WIyWlLk6GJQsqaUBKTNV-1" vertex="1">
          <mxGeometry x="320" y="190" width="120" height="40" as="geometry" />
        </mxCell>
        <mxCell id="WIyWlLk6GJQsqaUBKTNV-8" value="No" style="rounded=0;html=1;jettySize=auto;orthogonalLoop=1;fontSize=11;endArrow=block;endFill=0;endSize=8;strokeWidth=1;shadow=0;labelBackgroundColor=none;edgeStyle=orthogonalEdgeStyle;" parent="WIyWlLk6GJQsqaUBKTNV-1" source="WIyWlLk6GJQsqaUBKTNV-10" target="WIyWlLk6GJQsqaUBKTNV-11" edge="1">
          <mxGeometry x="0.3333" y="20" relative="1" as="geometry">
            <mxPoint as="offset" />
          </mxGeometry>
        </mxCell>
        <mxCell id="WIyWlLk6GJQsqaUBKTNV-9" value="Yes" style="edgeStyle=orthogonalEdgeStyle;rounded=0;html=1;jettySize=auto;orthogonalLoop=1;fontSize=11;endArrow=block;endFill=0;endSize=8;strokeWidth=1;shadow=0;labelBackgroundColor=none;" parent="WIyWlLk6GJQsqaUBKTNV-1" source="WIyWlLk6GJQsqaUBKTNV-10" target="WIyWlLk6GJQsqaUBKTNV-12" edge="1">
          <mxGeometry y="10" relative="1" as="geometry">
            <mxPoint as="offset" />
          </mxGeometry>
        </mxCell>
        <mxCell id="WIyWlLk6GJQsqaUBKTNV-10" value="Bulb&lt;br&gt;burned out?" style="rhombus;whiteSpace=wrap;html=1;shadow=0;fontFamily=Helvetica;fontSize=12;align=center;strokeWidth=1;spacing=6;spacingTop=-4;" parent="WIyWlLk6GJQsqaUBKTNV-1" vertex="1">
          <mxGeometry x="170" y="290" width="100" height="80" as="geometry" />
        </mxCell>
        <mxCell id="WIyWlLk6GJQsqaUBKTNV-11" value="Repair Lamp" style="rounded=1;whiteSpace=wrap;html=1;fontSize=12;glass=0;strokeWidth=1;shadow=0;" parent="WIyWlLk6GJQsqaUBKTNV-1" vertex="1">
          <mxGeometry x="160" y="430" width="120" height="40" as="geometry" />
        </mxCell>
        <mxCell id="WIyWlLk6GJQsqaUBKTNV-12" value="Replace Bulb" style="rounded=1;whiteSpace=wrap;html=1;fontSize=12;glass=0;strokeWidth=1;shadow=0;" parent="WIyWlLk6GJQsqaUBKTNV-1" vertex="1">
          <mxGeometry x="320" y="310" width="120" height="40" as="geometry" />
        </mxCell>
      </root>
    </mxGraphModel>
  </diagram>
  <diagram id="SK_iEz7zMTqpgUPIN5d_" name="페이지-2">
    <mxGraphModel dx="822" dy="1906" grid="1" gridSize="10" guides="1" tooltips="1" connect="1" arrows="1" fold="1" page="1" pageScale="1" pageWidth="827" pageHeight="1169" math="0" shadow="0">
      <root>
        <mxCell id="0" />
        <mxCell id="1" parent="0" />
        <mxCell id="2e2691kYTpiGleOjH3lW-5" value="" style="swimlane;childLayout=stackLayout;resizeParent=1;resizeParentMax=0;horizontal=0;startSize=0;horizontalStack=0;html=1;" parent="1" vertex="1">
          <mxGeometry x="81" y="80" width="600" height="480" as="geometry" />
        </mxCell>
        <mxCell id="2e2691kYTpiGleOjH3lW-6" value="" style="swimlane;startSize=0;horizontal=0;html=1;strokeColor=none;" parent="2e2691kYTpiGleOjH3lW-5" vertex="1">
          <mxGeometry width="600" height="120" as="geometry" />
        </mxCell>
        <mxCell id="S8p28Eo5mobxE9UgC7py-1" value="연구과제&lt;div&gt;수행조직&lt;/div&gt;" style="strokeWidth=2;html=1;shape=label;whiteSpace=wrap;rounded=1;absoluteArcSize=1;arcSize=14;" parent="2e2691kYTpiGleOjH3lW-6" vertex="1">
          <mxGeometry x="30" y="30" width="100" height="60" as="geometry" />
        </mxCell>
        <mxCell id="S8p28Eo5mobxE9UgC7py-2" value="&lt;div&gt;정보화사업&lt;/div&gt;&lt;div&gt;운영조직&lt;/div&gt;" style="strokeWidth=2;html=1;shape=label;whiteSpace=wrap;rounded=1;absoluteArcSize=1;arcSize=14;" parent="2e2691kYTpiGleOjH3lW-6" vertex="1">
          <mxGeometry x="327" y="30" width="100" height="60" as="geometry" />
        </mxCell>
        <mxCell id="S8p28Eo5mobxE9UgC7py-3" value="&lt;div&gt;정보화사업&lt;/div&gt;&lt;div&gt;수행사업자&lt;/div&gt;" style="strokeWidth=2;html=1;shape=label;whiteSpace=wrap;rounded=1;absoluteArcSize=1;arcSize=14;" parent="2e2691kYTpiGleOjH3lW-6" vertex="1">
          <mxGeometry x="478" y="30" width="100" height="60" as="geometry" />
        </mxCell>
        <mxCell id="2e2691kYTpiGleOjH3lW-7" value="" style="swimlane;startSize=0;horizontal=0;html=1;dashed=1;strokeColor=none;" parent="2e2691kYTpiGleOjH3lW-5" vertex="1">
          <mxGeometry y="120" width="600" height="120" as="geometry" />
        </mxCell>
        <mxCell id="5n1dKm0qi3Ug6_TY4CIc-2" value="자체 예산?" style="strokeWidth=2;html=1;shape=mxgraph.flowchart.decision;whiteSpace=wrap;" parent="2e2691kYTpiGleOjH3lW-7" vertex="1">
          <mxGeometry x="30" y="30" width="100" height="60" as="geometry" />
        </mxCell>
        <mxCell id="7OC95sT1-mnSZazaumU0-3" value="공공기관?" style="strokeWidth=2;html=1;shape=mxgraph.flowchart.decision;whiteSpace=wrap;" parent="2e2691kYTpiGleOjH3lW-7" vertex="1">
          <mxGeometry x="327" y="30" width="100" height="60" as="geometry" />
        </mxCell>
        <mxCell id="7OC95sT1-mnSZazaumU0-10" value="정보화사업&lt;div&gt;지원?&lt;/div&gt;" style="strokeWidth=2;html=1;shape=mxgraph.flowchart.decision;whiteSpace=wrap;" parent="2e2691kYTpiGleOjH3lW-7" vertex="1">
          <mxGeometry x="178" y="30" width="120" height="60" as="geometry" />
        </mxCell>
        <mxCell id="7OC95sT1-mnSZazaumU0-11" style="edgeStyle=orthogonalEdgeStyle;rounded=0;orthogonalLoop=1;jettySize=auto;html=1;exitX=1;exitY=0.5;exitDx=0;exitDy=0;exitPerimeter=0;entryX=0;entryY=0.5;entryDx=0;entryDy=0;entryPerimeter=0;" parent="2e2691kYTpiGleOjH3lW-7" source="5n1dKm0qi3Ug6_TY4CIc-2" target="7OC95sT1-mnSZazaumU0-10" edge="1">
          <mxGeometry relative="1" as="geometry" />
        </mxCell>
        <mxCell id="7OC95sT1-mnSZazaumU0-12" value="No" style="edgeLabel;html=1;align=center;verticalAlign=middle;resizable=0;points=[];" parent="7OC95sT1-mnSZazaumU0-11" vertex="1" connectable="0">
          <mxGeometry x="-0.0256" y="-2" relative="1" as="geometry">
            <mxPoint as="offset" />
          </mxGeometry>
        </mxCell>
        <mxCell id="2e2691kYTpiGleOjH3lW-8" value="" style="swimlane;startSize=0;horizontal=0;html=1;strokeColor=none;" parent="2e2691kYTpiGleOjH3lW-5" vertex="1">
          <mxGeometry y="240" width="600" height="120" as="geometry" />
        </mxCell>
        <mxCell id="0DhCJSr_aqL9QJpj33sH-1" value="DB 전문가 포함?" style="strokeWidth=2;html=1;shape=mxgraph.flowchart.decision;whiteSpace=wrap;" parent="2e2691kYTpiGleOjH3lW-8" vertex="1">
          <mxGeometry x="20" y="30" width="120" height="60" as="geometry" />
        </mxCell>
        <mxCell id="2e2691kYTpiGleOjH3lW-9" value="" style="swimlane;startSize=0;horizontal=0;html=1;strokeColor=none;" parent="2e2691kYTpiGleOjH3lW-5" vertex="1">
          <mxGeometry y="360" width="600" height="120" as="geometry" />
        </mxCell>
        <mxCell id="0DhCJSr_aqL9QJpj33sH-5" value="방안 A" style="whiteSpace=wrap;html=1;strokeWidth=2;fontSize=15;" parent="2e2691kYTpiGleOjH3lW-9" vertex="1">
          <mxGeometry x="44.25" y="37.5" width="71.5" height="45" as="geometry" />
        </mxCell>
        <mxCell id="EG_wETHNt2YH-2yyErJ1-1" value="방안 B" style="whiteSpace=wrap;html=1;strokeWidth=2;fontSize=15;" parent="2e2691kYTpiGleOjH3lW-9" vertex="1">
          <mxGeometry x="341.25" y="37.5" width="71.5" height="45" as="geometry" />
        </mxCell>
        <mxCell id="EG_wETHNt2YH-2yyErJ1-2" value="방안 C" style="whiteSpace=wrap;html=1;strokeWidth=2;fontSize=15;" parent="2e2691kYTpiGleOjH3lW-9" vertex="1">
          <mxGeometry x="492" y="37.5" width="71.5" height="45" as="geometry" />
        </mxCell>
        <mxCell id="4L8Cuwp7uEUkbLNw5xWZ-2" style="edgeStyle=orthogonalEdgeStyle;rounded=0;orthogonalLoop=1;jettySize=auto;html=1;exitX=0.5;exitY=1;exitDx=0;exitDy=0;exitPerimeter=0;entryX=0.5;entryY=0;entryDx=0;entryDy=0;entryPerimeter=0;" parent="2e2691kYTpiGleOjH3lW-5" source="S8p28Eo5mobxE9UgC7py-1" target="5n1dKm0qi3Ug6_TY4CIc-2" edge="1">
          <mxGeometry relative="1" as="geometry" />
        </mxCell>
        <mxCell id="0DhCJSr_aqL9QJpj33sH-3" style="edgeStyle=orthogonalEdgeStyle;rounded=0;orthogonalLoop=1;jettySize=auto;html=1;exitX=0.5;exitY=1;exitDx=0;exitDy=0;exitPerimeter=0;entryX=0.5;entryY=0;entryDx=0;entryDy=0;entryPerimeter=0;" parent="2e2691kYTpiGleOjH3lW-5" source="5n1dKm0qi3Ug6_TY4CIc-2" target="0DhCJSr_aqL9QJpj33sH-1" edge="1">
          <mxGeometry relative="1" as="geometry" />
        </mxCell>
        <mxCell id="EG_wETHNt2YH-2yyErJ1-3" value="Yes" style="edgeLabel;html=1;align=center;verticalAlign=middle;resizable=0;points=[];" parent="0DhCJSr_aqL9QJpj33sH-3" vertex="1" connectable="0">
          <mxGeometry x="-0.2" y="1" relative="1" as="geometry">
            <mxPoint as="offset" />
          </mxGeometry>
        </mxCell>
        <mxCell id="0DhCJSr_aqL9QJpj33sH-6" value="" style="edgeStyle=orthogonalEdgeStyle;rounded=0;orthogonalLoop=1;jettySize=auto;html=1;" parent="2e2691kYTpiGleOjH3lW-5" source="0DhCJSr_aqL9QJpj33sH-1" target="0DhCJSr_aqL9QJpj33sH-5" edge="1">
          <mxGeometry relative="1" as="geometry" />
        </mxCell>
        <mxCell id="EG_wETHNt2YH-2yyErJ1-4" value="Yes" style="edgeLabel;html=1;align=center;verticalAlign=middle;resizable=0;points=[];" parent="0DhCJSr_aqL9QJpj33sH-6" vertex="1" connectable="0">
          <mxGeometry x="0.0399" y="-1" relative="1" as="geometry">
            <mxPoint as="offset" />
          </mxGeometry>
        </mxCell>
        <mxCell id="HuRnH1Dy_c9MGHNLwczV-1" style="edgeStyle=orthogonalEdgeStyle;rounded=0;orthogonalLoop=1;jettySize=auto;html=1;exitX=1;exitY=0.5;exitDx=0;exitDy=0;exitPerimeter=0;entryX=0;entryY=0.5;entryDx=0;entryDy=0;" parent="2e2691kYTpiGleOjH3lW-5" source="0DhCJSr_aqL9QJpj33sH-1" target="EG_wETHNt2YH-2yyErJ1-1" edge="1">
          <mxGeometry relative="1" as="geometry">
            <Array as="points">
              <mxPoint x="179" y="300" />
              <mxPoint x="179" y="420" />
            </Array>
          </mxGeometry>
        </mxCell>
        <mxCell id="HuRnH1Dy_c9MGHNLwczV-2" value="No" style="edgeLabel;html=1;align=center;verticalAlign=middle;resizable=0;points=[];" parent="HuRnH1Dy_c9MGHNLwczV-1" vertex="1" connectable="0">
          <mxGeometry x="-0.8846" relative="1" as="geometry">
            <mxPoint as="offset" />
          </mxGeometry>
        </mxCell>
        <mxCell id="7OC95sT1-mnSZazaumU0-4" style="edgeStyle=orthogonalEdgeStyle;rounded=0;orthogonalLoop=1;jettySize=auto;html=1;exitX=0.5;exitY=1;exitDx=0;exitDy=0;exitPerimeter=0;entryX=0.5;entryY=0;entryDx=0;entryDy=0;entryPerimeter=0;" parent="2e2691kYTpiGleOjH3lW-5" source="S8p28Eo5mobxE9UgC7py-2" target="7OC95sT1-mnSZazaumU0-3" edge="1">
          <mxGeometry relative="1" as="geometry" />
        </mxCell>
        <mxCell id="7OC95sT1-mnSZazaumU0-5" style="edgeStyle=orthogonalEdgeStyle;rounded=0;orthogonalLoop=1;jettySize=auto;html=1;exitX=1;exitY=0.5;exitDx=0;exitDy=0;exitPerimeter=0;entryX=0.5;entryY=1;entryDx=0;entryDy=0;" parent="2e2691kYTpiGleOjH3lW-5" source="7OC95sT1-mnSZazaumU0-3" target="0DhCJSr_aqL9QJpj33sH-5" edge="1">
          <mxGeometry relative="1" as="geometry">
            <Array as="points">
              <mxPoint x="469" y="180" />
              <mxPoint x="469" y="463" />
              <mxPoint x="80" y="463" />
            </Array>
          </mxGeometry>
        </mxCell>
        <mxCell id="7OC95sT1-mnSZazaumU0-6" value="Yes" style="edgeLabel;html=1;align=center;verticalAlign=middle;resizable=0;points=[];" parent="7OC95sT1-mnSZazaumU0-5" vertex="1" connectable="0">
          <mxGeometry x="-0.973" y="2" relative="1" as="geometry">
            <mxPoint as="offset" />
          </mxGeometry>
        </mxCell>
        <mxCell id="7OC95sT1-mnSZazaumU0-7" style="edgeStyle=orthogonalEdgeStyle;rounded=0;orthogonalLoop=1;jettySize=auto;html=1;exitX=0.5;exitY=1;exitDx=0;exitDy=0;exitPerimeter=0;entryX=1;entryY=0.5;entryDx=0;entryDy=0;" parent="2e2691kYTpiGleOjH3lW-5" source="7OC95sT1-mnSZazaumU0-3" target="EG_wETHNt2YH-2yyErJ1-1" edge="1">
          <mxGeometry relative="1" as="geometry">
            <Array as="points">
              <mxPoint x="377" y="260" />
              <mxPoint x="447" y="260" />
              <mxPoint x="447" y="420" />
            </Array>
          </mxGeometry>
        </mxCell>
        <mxCell id="7OC95sT1-mnSZazaumU0-8" value="No" style="edgeLabel;html=1;align=center;verticalAlign=middle;resizable=0;points=[];" parent="7OC95sT1-mnSZazaumU0-7" vertex="1" connectable="0">
          <mxGeometry x="-0.8293" y="1" relative="1" as="geometry">
            <mxPoint as="offset" />
          </mxGeometry>
        </mxCell>
        <mxCell id="7OC95sT1-mnSZazaumU0-9" style="edgeStyle=orthogonalEdgeStyle;rounded=0;orthogonalLoop=1;jettySize=auto;html=1;exitX=0.5;exitY=1;exitDx=0;exitDy=0;exitPerimeter=0;entryX=0.5;entryY=0;entryDx=0;entryDy=0;" parent="2e2691kYTpiGleOjH3lW-5" source="S8p28Eo5mobxE9UgC7py-3" target="EG_wETHNt2YH-2yyErJ1-2" edge="1">
          <mxGeometry relative="1" as="geometry" />
        </mxCell>
        <mxCell id="7OC95sT1-mnSZazaumU0-13" style="edgeStyle=orthogonalEdgeStyle;rounded=0;orthogonalLoop=1;jettySize=auto;html=1;exitX=0.5;exitY=0;exitDx=0;exitDy=0;exitPerimeter=0;entryX=0;entryY=0.5;entryDx=0;entryDy=0;entryPerimeter=0;" parent="2e2691kYTpiGleOjH3lW-5" source="7OC95sT1-mnSZazaumU0-10" target="S8p28Eo5mobxE9UgC7py-2" edge="1">
          <mxGeometry relative="1" as="geometry" />
        </mxCell>
        <mxCell id="7OC95sT1-mnSZazaumU0-14" value="Yes" style="edgeLabel;html=1;align=center;verticalAlign=middle;resizable=0;points=[];" parent="7OC95sT1-mnSZazaumU0-13" vertex="1" connectable="0">
          <mxGeometry x="-0.7877" y="-3" relative="1" as="geometry">
            <mxPoint as="offset" />
          </mxGeometry>
        </mxCell>
        <mxCell id="7OC95sT1-mnSZazaumU0-15" style="edgeStyle=orthogonalEdgeStyle;rounded=0;orthogonalLoop=1;jettySize=auto;html=1;exitX=0.5;exitY=1;exitDx=0;exitDy=0;exitPerimeter=0;entryX=0.5;entryY=0;entryDx=0;entryDy=0;" parent="2e2691kYTpiGleOjH3lW-5" source="7OC95sT1-mnSZazaumU0-10" target="EG_wETHNt2YH-2yyErJ1-1" edge="1">
          <mxGeometry relative="1" as="geometry" />
        </mxCell>
        <mxCell id="7OC95sT1-mnSZazaumU0-16" value="No" style="edgeLabel;html=1;align=center;verticalAlign=middle;resizable=0;points=[];" parent="7OC95sT1-mnSZazaumU0-15" vertex="1" connectable="0">
          <mxGeometry x="-0.902" relative="1" as="geometry">
            <mxPoint as="offset" />
          </mxGeometry>
        </mxCell>
        <mxCell id="7OC95sT1-mnSZazaumU0-21" value="" style="swimlane;startSize=0;horizontal=0;html=1;strokeColor=none;" parent="1" vertex="1">
          <mxGeometry x="81" y="-30" width="600" height="110" as="geometry" />
        </mxCell>
        <mxCell id="nwCuJpAUt--uD3cL2fHr-3" value="DB 구축 주체의 입지 판단" style="verticalLabelPosition=middle;verticalAlign=middle;html=1;shape=mxgraph.flowchart.start_1;whiteSpace=wrap;size=0.026999999999999996;arcSize=10;flipV=1;labelPosition=center;align=center;strokeWidth=2;" parent="7OC95sT1-mnSZazaumU0-21" vertex="1">
          <mxGeometry x="175" y="34" width="250" height="40" as="geometry" />
        </mxCell>
        <mxCell id="nwCuJpAUt--uD3cL2fHr-16" style="edgeStyle=orthogonalEdgeStyle;rounded=0;orthogonalLoop=1;jettySize=auto;html=1;exitX=0.5;exitY=0;exitDx=0;exitDy=0;exitPerimeter=0;entryX=0.5;entryY=0;entryDx=0;entryDy=0;dashed=1;" parent="1" source="nwCuJpAUt--uD3cL2fHr-3" target="S8p28Eo5mobxE9UgC7py-2" edge="1">
          <mxGeometry relative="1" as="geometry">
            <Array as="points">
              <mxPoint x="381" y="60" />
              <mxPoint x="458" y="60" />
            </Array>
          </mxGeometry>
        </mxCell>
        <mxCell id="nwCuJpAUt--uD3cL2fHr-17" style="edgeStyle=orthogonalEdgeStyle;rounded=0;orthogonalLoop=1;jettySize=auto;html=1;exitX=0.5;exitY=0;exitDx=0;exitDy=0;exitPerimeter=0;entryX=0.5;entryY=0;entryDx=0;entryDy=0;dashed=1;" parent="1" source="nwCuJpAUt--uD3cL2fHr-3" target="S8p28Eo5mobxE9UgC7py-1" edge="1">
          <mxGeometry relative="1" as="geometry">
            <Array as="points">
              <mxPoint x="381" y="60" />
              <mxPoint x="161" y="60" />
            </Array>
          </mxGeometry>
        </mxCell>
        <mxCell id="nwCuJpAUt--uD3cL2fHr-18" style="edgeStyle=orthogonalEdgeStyle;rounded=0;orthogonalLoop=1;jettySize=auto;html=1;exitX=0.5;exitY=0;exitDx=0;exitDy=0;exitPerimeter=0;entryX=0.5;entryY=0;entryDx=0;entryDy=0;dashed=1;" parent="1" source="nwCuJpAUt--uD3cL2fHr-3" target="S8p28Eo5mobxE9UgC7py-3" edge="1">
          <mxGeometry relative="1" as="geometry">
            <Array as="points">
              <mxPoint x="381" y="60" />
              <mxPoint x="609" y="60" />
            </Array>
          </mxGeometry>
        </mxCell>
      </root>
    </mxGraphModel>
  </diagram>
</mxfile>
